<svg width="24" height="24" viewBox="0 0 24 24" fill="none" xmlns="http://www.w3.org/2000/svg">
<path d="M14.894 6.26099H16.2659C16.5054 6.26099 16.9 6.59624 17.0307 6.79329C17.5076 7.51317 17.7536 8.8731 18.245 9.57003C18.7364 10.267 20.1581 9.42137 20.5752 10.233C20.6575 10.3932 20.666 11.4134 20.6041 11.5965C20.4245 12.1278 19.3425 12.1482 19.2462 12.683C19.1135 14.5613 19.3824 16.6007 19.2362 18.46C19.0841 20.3926 16.5717 20.3183 16.3028 18.7453C16.2355 18.3497 16.4754 17.7686 15.8683 17.7825L8.03897 17.7905C7.56952 17.8229 7.74613 18.3238 7.70572 18.6536C7.50118 20.3238 4.919 20.4231 4.76485 18.46C4.61967 16.6161 4.87959 14.5877 4.76335 12.7244C4.67156 12.1298 3.58052 12.1397 3.39693 11.5965C3.34654 11.4473 3.34305 10.5014 3.38047 10.3373C3.54061 9.6284 4.78181 9.91026 5.29066 9.85289C5.68926 9.8075 5.77008 9.55307 5.92274 9.23778C6.25798 8.54784 6.58125 7.37997 6.96988 6.79279C7.10058 6.59574 7.49519 6.26049 7.73465 6.26049H9.10656V4.63965C9.10656 4.5713 9.33105 4.29442 9.40838 4.24304C9.56203 4.14127 9.70072 4.1268 9.87782 4.11383C11.2911 4.00857 12.8381 4.19315 14.2654 4.12032C14.47 4.09587 14.8935 4.47152 14.8935 4.63965V6.26099H14.894ZM17.1888 11.2497L17.2063 10.9614C16.7394 10.0919 16.463 8.93097 15.9771 8.09635C15.8918 7.94968 15.8244 7.83544 15.6548 7.77009H8.34577L8.04894 8.02152C7.8005 8.93047 6.99183 10.0899 6.79477 10.9614C6.76733 11.0826 6.77332 11.1335 6.81223 11.2497H17.1888ZM6.49844 13.5052C6.18165 13.5785 6.23603 14.1966 6.26097 14.4695C6.27993 14.6745 6.31435 14.7828 6.52638 14.8526C6.76534 14.9314 8.37172 14.9295 8.68401 14.8925C8.81272 14.8771 9.01227 14.8047 9.07014 14.68C9.13849 14.5328 9.1345 13.7551 9.05168 13.6244C8.97735 13.5067 8.85962 13.5037 8.7349 13.4922C8.02999 13.4273 7.21532 13.5361 6.49844 13.5052ZM15.129 13.5052C14.8122 13.5785 14.8666 14.1966 14.8915 14.4695C14.9105 14.6745 14.9449 14.7828 15.1569 14.8526C15.3959 14.9314 17.0023 14.9295 17.3146 14.8925C17.4433 14.8771 17.6428 14.8047 17.7007 14.68C17.769 14.5328 17.765 13.7551 17.6822 13.6244C17.6079 13.5067 17.4902 13.5037 17.3654 13.4922C16.6605 13.4273 15.8459 13.5361 15.129 13.5052Z" fill="white"/>
</svg>
